<?xml version="1.0" standalone="no"?>
<!DOCTYPE svg PUBLIC "-//W3C//DTD SVG 20010904//EN"
 "http://www.w3.org/TR/2001/REC-SVG-20010904/DTD/svg10.dtd">
<svg version="1.0" xmlns="http://www.w3.org/2000/svg"
 width="640.000000pt" height="640.000000pt" viewBox="0 0 640.000000 640.000000"
 preserveAspectRatio="xMidYMid meet">
<metadata>
Created by potrace 1.11, written by Peter Selinger 2001-2013
</metadata>
<g transform="translate(0.000000,640.000000) scale(0.100000,-0.100000)"
fill="#000000" stroke="none">
<path d="M3078 5325 c-2 -2 -39 -6 -82 -10 -43 -4 -88 -9 -100 -11 -12 -3 -34
-6 -51 -8 -124 -14 -446 -108 -532 -155 -10 -6 -60 -31 -112 -56 -52 -25 -109
-57 -127 -70 -18 -14 -35 -25 -38 -25 -11 0 -122 -80 -216 -155 -33 -26 -248
-242 -280 -280 -206 -249 -353 -544 -428 -855 -12 -47 -23 -103 -27 -125 -3
-22 -7 -47 -10 -55 -2 -8 -6 -42 -10 -75 -3 -33 -8 -80 -11 -105 -13 -113 -5
-354 16 -480 20 -116 22 -128 35 -180 3 -11 7 -28 9 -37 17 -73 124 -349 167
-434 122 -237 302 -469 494 -634 32 -27 63 -55 69 -61 21 -20 158 -116 224
-156 170 -104 434 -215 581 -244 14 -3 28 -7 32 -9 17 -11 222 -47 299 -52
166 -12 413 -6 520 12 14 2 41 6 60 9 330 49 695 214 976 440 406 327 658 752
768 1296 33 166 39 493 11 661 -2 13 -6 40 -9 59 -16 98 -27 147 -70 303 -43
156 -161 402 -265 552 -211 305 -513 570 -816 714 -139 67 -158 75 -260 109
-109 37 -187 57 -290 77 -16 3 -41 8 -55 10 -14 3 -47 7 -75 11 -27 3 -66 8
-85 10 -38 5 -308 13 -312 9z"/>
</g>
</svg>
